<svg xmlns="http://www.w3.org/2000/svg" xmlns:xlink="http://www.w3.org/1999/xlink" style="margin: auto; background: rgba(255, 255, 255, 0); display: block; z-index: 1; position: relative; shape-rendering: auto;" width="1395" height="772" preserveAspectRatio="xMidYMid" viewBox="0 0 1395 772">
<g transform="translate(697.5,386) scale(1,1) translate(-697.5,-386)"><g transform="translate(1081.5803108487462,219.79360776934428) scale(100)" opacity="0.24000000000000002">
  <path d="M3.7665000000000006 0 C3.7665000000000006 0.96255 4.565244976476394 1.1301562092282058 4.147610183388788 1.9973837930276794 S3.100926232150522 2.3446281699367106 2.3483743387009204 2.9447682787158347 S1.9627919813385082 4.273893118749376 1.0243751194678938 4.488080643729027 S0.1002917641241563 3.8862535062124897 -0.838125097746458 3.6720659812328393 S-2.117683409407078 4.1993013383207005 -2.8702353028566803 3.599161229541577 S-2.975864447866856 2.501450687185757 -3.393499240954462 1.6342231033862833 S-4.603500000000001 0.9625500000000006 -4.603500000000001 5.637661539874842e-16 S-3.811134034042068 -0.7669955195868089 -3.3934992409544624 -1.6342231033862824 S-3.6227871963062834 -2.9990211207624515 -2.8702353028566816 -3.5991612295415756 S-1.7765419596170733 -3.4578784562531886 -0.838125097746459 -3.6720659812328393 S0.08595825759727838 -4.7022681687086765 1.0243751194678927 -4.488080643729027 S1.5958224452513172 -3.544908387494959 2.3483743387009195 -2.944768278715835 S3.729975390301181 -2.864611376827154 4.147610183388787 -1.9973837930276803 S3.7665 -0.9625500000000009 3.7665000000000006 -9.225264337977013e-16" fill="#ff00ff" stroke-width="0">
    <animateTransform attributeName="transform" type="rotate" dur="5s" repeatCount="indefinite" values="0;51.42857142857143"></animateTransform>
  </path>
</g><g transform="translate(1158.3963730184953,186.55232932321314) scale(100)" opacity="0.24000000000000002">
  <path d="M4.5198 0 C4.5198 1.15506 5.478293971771671 1.3561874510738465 4.977132220066545 2.396860551633215 S3.7211114785806263 2.8135538039240524 2.818049206441104 3.533721934459001 S2.35535037760621 5.128671742499249 1.2292501433614724 5.38569677247483 S0.12035011694898778 4.663504207454987 -1.0057501172957495 4.406479177479406 S-2.5412200912884932 5.039161605984839 -3.444282363428016 4.318993475449891 S-3.571037337440227 3.0017408246229076 -4.072199089145354 1.9610677240635397 S-5.5242 1.1550600000000006 -5.5242 6.765193847849809e-16 S-4.57336084085048 -0.9203946235041705 -4.072199089145354 -1.9610677240635388 S-4.34734463556754 -3.5988253449149408 -3.444282363428017 -4.31899347544989 S-2.131850351540488 -4.149454147503826 -1.0057501172957506 -4.406479177479406 S0.10314990911673383 -5.64272180245041 1.229250143361471 -5.38569677247483 S1.9149869343015804 -4.25389006499395 2.818049206441103 -3.5337219344590016 S4.4759704683614165 -3.4375336521925846 4.977132220066544 -2.396860551633216 S4.5198 -1.155060000000001 4.5198 -1.1070317205572413e-15" fill="#00c6ff" stroke-width="0">
    <animateTransform attributeName="transform" type="rotate" dur="2.5s" repeatCount="indefinite" values="0;51.42857142857143"></animateTransform>
  </path>
</g><g transform="translate(1342.7549222258936,106.77326105249841) scale(100)" opacity="0.24000000000000002">
  <path d="M6.32772 0 C6.32772 1.617084 7.66961156048034 1.8986624315033855 6.9679851080931625 3.355604772286501 S5.209556070012877 3.938975325493673 3.945268889017546 4.947210708242602 S3.2974905286486935 7.180140439498951 1.7209502007060613 7.539975481464763 S0.1684901637285825 6.528905890436982 -1.4080501642140495 6.169070848471169 S-3.5577081278038905 7.054826248378776 -4.821995308799222 6.046590865629848 S-4.999452272416318 4.2024371544720704 -5.701078724803495 2.7454948136889556 S-7.733880000000001 1.6170840000000009 -7.733880000000001 9.471271386989733e-16 S-6.402705177190674 -1.2885524729058389 -5.701078724803496 -2.7454948136889543 S-6.086282489794555 -5.038355482880918 -4.821995308799224 -6.046590865629846 S-2.9845904921566833 -5.809235806505356 -1.408050164214051 -6.169070848471169 S0.14440987276342776 -7.899810523430576 1.7209502007060598 -7.539975481464763 S2.680981708022213 -5.95544609099153 3.9452688890175445 -4.9472107082426025 S6.266358655705984 -4.812547113069618 6.967985108093162 -3.3556047722865023 S6.32772 -1.6170840000000015 6.32772 -1.549844408780138e-15" fill="#00ffff" stroke-width="0">
    <animateTransform attributeName="transform" type="rotate" dur="1.6666666666666665s" repeatCount="indefinite" values="0;51.42857142857143"></animateTransform>
  </path>
</g></g>
</svg>