<svg xmlns="http://www.w3.org/2000/svg" xmlns:xlink="http://www.w3.org/1999/xlink" version="1.1" width="256" height="256" viewBox="0 0 256 256" xml:space="preserve">
<desc>Created with Fabric.js 1.7.22</desc>
<defs>
</defs>
<g transform="translate(128 128) scale(0.72 0.72)" style="">
	<g style="stroke: none; stroke-width: 0; stroke-dasharray: none; stroke-linecap: butt; stroke-linejoin: miter; stroke-miterlimit: 10; fill: none; fill-rule: nonzero; opacity: 1;" transform="translate(-175.05 -175.05000000000004) scale(3.89 3.89)" >
	<path d="M 77.77 77.553 l -5.462 -44.03 c -0.28 -2.259 -2.339 -3.863 -4.598 -3.583 l -20.902 2.593 c -7.013 17.374 -7.077 34.489 0.493 51.322 c 0.869 0.884 2.124 1.367 3.449 1.203 l 23.436 -2.907 C 76.446 81.871 78.051 79.812 77.77 77.553 z M 59.237 38.731 c -0.182 1.551 -1.587 2.661 -3.138 2.478 s -2.661 -1.587 -2.478 -3.138 c 0.182 -1.551 1.587 -2.661 3.138 -2.478 C 58.31 35.774 59.419 37.18 59.237 38.731 z" style="stroke: none; stroke-width: 1; stroke-dasharray: none; stroke-linecap: butt; stroke-linejoin: miter; stroke-miterlimit: 10; fill: rgb(255,112,88); fill-rule: nonzero; opacity: 1;" transform=" matrix(1 0 0 1 0 0) " stroke-linecap="round" />
	<path d="M 49.891 37.303 l -3.183 -4.925 l -6.841 -10.585 c -1.266 -1.959 -4.002 -2.28 -5.687 -0.668 L 20.835 33.889 c -2.1 2.008 -3.434 4.686 -3.773 7.571 l -4.838 41.175 c -0.239 2.038 1.218 3.883 3.256 4.123 l 27.366 3.216 c 2.038 0.239 3.883 -1.218 4.123 -3.256 l 4.838 -41.175 C 52.145 42.657 51.468 39.744 49.891 37.303 z M 38.882 29.88 c -0.182 1.551 -1.587 2.661 -3.138 2.478 s -2.661 -1.587 -2.478 -3.138 c 0.182 -1.551 1.587 -2.661 3.138 -2.478 C 37.954 26.924 39.064 28.329 38.882 29.88 z" style="stroke: none; stroke-width: 1; stroke-dasharray: none; stroke-linecap: butt; stroke-linejoin: miter; stroke-miterlimit: 10; fill: rgb(231,78,58); fill-rule: nonzero; opacity: 1;" transform=" matrix(1 0 0 1 0 0) " stroke-linecap="round" />
	<circle cx="48.153" cy="3.153" r="3.153" style="stroke: none; stroke-width: 1; stroke-dasharray: none; stroke-linecap: butt; stroke-linejoin: miter; stroke-miterlimit: 10; fill: rgb(214,224,235); fill-rule: nonzero; opacity: 1;" transform="  matrix(1 0 0 1 0 0) "/>
	<path d="M 56.43 39.451 c -0.337 0 -0.668 -0.162 -0.871 -0.461 c -6.669 -9.836 -8.139 -24.988 -8.42 -33.183 c -5.051 6.06 -8.773 15.121 -9.69 23.853 c -0.061 0.577 -0.576 0.99 -1.155 0.935 c -0.577 -0.061 -0.996 -0.578 -0.935 -1.155 C 36.44 19.13 41.051 8.773 47.389 2.411 c 0.3 -0.3 0.75 -0.39 1.141 -0.231 c 0.392 0.16 0.651 0.54 0.654 0.964 c 0.118 14.387 3.152 27.347 8.115 34.666 c 0.325 0.48 0.2 1.134 -0.28 1.459 C 56.839 39.393 56.633 39.451 56.43 39.451 z" style="stroke: none; stroke-width: 1; stroke-dasharray: none; stroke-linecap: butt; stroke-linejoin: miter; stroke-miterlimit: 10; fill: rgb(214,224,235); fill-rule: nonzero; opacity: 1;" transform=" matrix(1 0 0 1 0 0) " stroke-linecap="round" />
	<path d="M 52.77 78.144 c -0.523 0 -0.976 -0.389 -1.042 -0.922 c -0.072 -0.576 0.338 -1.101 0.913 -1.172 l 18.436 -2.287 c 0.58 -0.083 1.1 0.337 1.172 0.913 c 0.072 0.576 -0.338 1.101 -0.913 1.172 l -18.436 2.287 C 52.856 78.142 52.813 78.144 52.77 78.144 z" style="stroke: none; stroke-width: 1; stroke-dasharray: none; stroke-linecap: butt; stroke-linejoin: miter; stroke-miterlimit: 10; fill: rgb(242,242,242); fill-rule: nonzero; opacity: 1;" transform=" matrix(1 0 0 1 0 0) " stroke-linecap="round" />
	<path d="M 54.404 70.737 c -0.523 0 -0.976 -0.389 -1.042 -0.922 c -0.072 -0.576 0.338 -1.101 0.913 -1.172 l 15.8 -1.96 c 0.577 -0.084 1.101 0.337 1.172 0.913 c 0.072 0.576 -0.338 1.101 -0.913 1.172 l -15.8 1.96 C 54.49 70.735 54.447 70.737 54.404 70.737 z" style="stroke: none; stroke-width: 1; stroke-dasharray: none; stroke-linecap: butt; stroke-linejoin: miter; stroke-miterlimit: 10; fill: rgb(242,242,242); fill-rule: nonzero; opacity: 1;" transform=" matrix(1 0 0 1 0 0) " stroke-linecap="round" />
	<path d="M 57.931 63.093 c -0.523 0 -0.976 -0.389 -1.042 -0.922 c -0.072 -0.576 0.338 -1.101 0.913 -1.172 l 11.256 -1.397 c 0.577 -0.085 1.101 0.337 1.172 0.913 c 0.072 0.576 -0.338 1.101 -0.913 1.172 l -11.256 1.397 C 58.017 63.091 57.974 63.093 57.931 63.093 z" style="stroke: none; stroke-width: 1; stroke-dasharray: none; stroke-linecap: butt; stroke-linejoin: miter; stroke-miterlimit: 10; fill: rgb(242,242,242); fill-rule: nonzero; opacity: 1;" transform=" matrix(1 0 0 1 0 0) " stroke-linecap="round" />
	<path d="M 35.931 77.933 c -0.417 0 -0.833 -0.126 -1.192 -0.376 l -4.166 -2.887 l -4.826 1.784 c -0.752 0.283 -1.583 0.12 -2.169 -0.428 c -0.587 -0.548 -0.808 -1.365 -0.576 -2.134 l 1.459 -4.854 L 21.272 65 c -0.502 -0.626 -0.603 -1.467 -0.264 -2.194 s 1.048 -1.19 1.851 -1.209 l 5.068 -0.111 l 2.856 -4.28 c 0.439 -0.671 1.212 -1.027 2.004 -0.929 c 0.797 0.098 1.457 0.629 1.722 1.387 l 1.672 4.784 l 4.953 1.394 c 0.775 0.212 1.351 0.833 1.504 1.621 s -0.149 1.579 -0.788 2.065 l -4.033 3.068 l 0.205 5.142 c 0.038 0.803 -0.375 1.542 -1.077 1.931 C 36.627 77.845 36.278 77.933 35.931 77.933 z" style="stroke: none; stroke-width: 1; stroke-dasharray: none; stroke-linecap: butt; stroke-linejoin: miter; stroke-miterlimit: 10; fill: rgb(242,242,242); fill-rule: nonzero; opacity: 1;" transform=" matrix(1 0 0 1 0 0) " stroke-linecap="round" />
</g>
</g>
</svg>