
<svg class="notification-icon" xmlns="http://www.w3.org/2000/svg" viewBox="0 0 156 220.65"><defs><style>.cls-1,.cls-2,.cls-3{fill:#efefef;}.cls-2,.cls-3{stroke:#efefef;stroke-width:3px;}.cls-2{stroke-miterlimit:10;}.cls-3{stroke-linejoin:round;}</style></defs><title>notification-bell</title><g id="Layer_2" data-name="Layer 2"><g id="Layer_1-2" data-name="Layer 1"><path class="cls-1" d="M78.47,8a6,6,0,1,1-6,6,6,6,0,0,1,6-6m0-8a14,14,0,1,0,14,14,14,14,0,0,0-14-14Z"/><path class="cls-2" d="M93.38,209.39a4.74,4.74,0,0,0-4.4-6.72c-3.38.05,4.85-.1-11-.1-4.63,0-8.52.27-12,.13a4,4,0,0,0-3.87,5.51,17,17,0,0,0,31.25,1.18Z"/><path class="cls-3" d="M137.19,113.75c-.7-18.82,5.84-52.32-8-75.67-8.77-14.8-16.76-20.22-21.43-22.2a3.65,3.65,0,0,0-5,2.46c-1.67,6.52-7.14,19.6-24.29,19.6S55.84,24.77,54.19,18.27a3.66,3.66,0,0,0-4.83-2.56c-4.9,1.84-13.52,7.13-22.55,22.37-13.84,23.35-7.3,56.84-8,75.67S3.3,147.56,3.3,147.56s37.35,16,74.7,16,74.7-16,74.7-16S137.89,132.57,137.19,113.75Z"/><path class="cls-3" d="M1.5,160.65A191.84,191.84,0,0,0,78,176.55a191.84,191.84,0,0,0,76.5-15.91v10.44a6.45,6.45,0,0,1-4.08,6,197.54,197.54,0,0,1-72,13.76A197.57,197.57,0,0,1,5.61,177.11,6.51,6.51,0,0,1,1.5,171Z"/></g></g></svg>