<svg xmlns="http://www.w3.org/2000/svg" xmlns:xlink="http://www.w3.org/1999/xlink" version="1.1" width="256" height="256" viewBox="0 0 256 256" xml:space="preserve">
<desc>Created with Fabric.js 1.7.22</desc>
<defs>
</defs>
<g transform="translate(128 128) scale(0.72 0.72)" style="">
	<g style="stroke: none; stroke-width: 0; stroke-dasharray: none; stroke-linecap: butt; stroke-linejoin: miter; stroke-miterlimit: 10; fill: none; fill-rule: nonzero; opacity: 1;" transform="translate(-175.05 -175.05000000000004) scale(3.89 3.89)" >
	<path d="M 23.002 10.214 L 23.002 10.214 c -0.3 -0.124 -0.323 -0.401 -0.323 -0.483 c 0 -0.082 0.023 -0.359 0.323 -0.483 c 0.151 -0.062 0.268 -0.18 0.331 -0.331 c 0.062 -0.151 0.062 -0.317 0 -0.468 l -0.398 -0.961 c -0.129 -0.311 -0.487 -0.46 -0.798 -0.331 c -0.3 0.124 -0.512 -0.055 -0.569 -0.113 c -0.058 -0.058 -0.237 -0.27 -0.113 -0.57 c 0.062 -0.151 0.062 -0.317 0 -0.468 c -0.062 -0.151 -0.18 -0.268 -0.331 -0.331 l -0.961 -0.398 c -0.311 -0.129 -0.669 0.02 -0.798 0.331 c -0.124 0.299 -0.401 0.322 -0.483 0.322 c -0.082 0 -0.359 -0.023 -0.483 -0.323 c -0.062 -0.151 -0.18 -0.268 -0.331 -0.331 c -0.151 -0.062 -0.317 -0.062 -0.468 0 l -0.961 0.398 c -0.151 0.062 -0.268 0.18 -0.331 0.331 c -0.062 0.151 -0.062 0.317 0 0.468 c 0.124 0.299 -0.055 0.512 -0.113 0.57 c -0.058 0.058 -0.27 0.238 -0.569 0.113 c -0.151 -0.062 -0.317 -0.062 -0.468 0 c -0.151 0.062 -0.268 0.18 -0.331 0.331 L 14.428 8.45 c -0.062 0.151 -0.062 0.317 0 0.468 c 0.062 0.151 0.18 0.268 0.331 0.331 c 0.299 0.124 0.323 0.401 0.323 0.483 c 0 0.082 -0.023 0.359 -0.323 0.483 c -0.311 0.129 -0.459 0.487 -0.331 0.798 l 0.398 0.961 c 0.062 0.151 0.18 0.268 0.331 0.331 c 0.151 0.062 0.317 0.062 0.468 0 c 0.299 -0.124 0.512 0.055 0.57 0.113 c 0.058 0.058 0.237 0.27 0.113 0.57 c -0.129 0.311 0.019 0.669 0.331 0.798 l 0.961 0.398 c 0.075 0.031 0.155 0.047 0.234 0.047 s 0.158 -0.016 0.234 -0.047 c 0.151 -0.062 0.268 -0.18 0.331 -0.331 c 0.124 -0.299 0.401 -0.323 0.483 -0.323 l 0 0 c 0.082 0 0.359 0.023 0.483 0.323 c 0.129 0.311 0.487 0.459 0.798 0.33 l 0.961 -0.398 c 0.311 -0.129 0.459 -0.487 0.33 -0.798 c -0.124 -0.299 0.055 -0.512 0.113 -0.57 c 0.058 -0.058 0.27 -0.238 0.57 -0.113 c 0.311 0.128 0.669 -0.02 0.798 -0.331 l 0.398 -0.961 C 23.461 10.701 23.313 10.343 23.002 10.214 z M 18.88 11.418 c -0.93 0 -1.687 -0.757 -1.687 -1.687 c 0 -0.93 0.757 -1.687 1.687 -1.687 c 0.93 0 1.687 0.757 1.687 1.687 C 20.567 10.661 19.81 11.418 18.88 11.418 z" style="stroke: none; stroke-width: 1; stroke-dasharray: none; stroke-linecap: butt; stroke-linejoin: miter; stroke-miterlimit: 10; fill: rgb(255,226,122); fill-rule: nonzero; opacity: 1;" transform=" matrix(3.89 0 0 3.89 -1.9444444444444287 -1.9444444444444287) " stroke-linecap="round" />
	<rect x="33.91" y="64.43" rx="0" ry="0" width="19.02" height="8.16" style="stroke: none; stroke-width: 1; stroke-dasharray: none; stroke-linecap: butt; stroke-linejoin: miter; stroke-miterlimit: 10; fill: rgb(239,231,239); fill-rule: nonzero; opacity: 1;" transform=" matrix(1 0 0 1 0 0) "/>
	<path d="M 48.546 80.748 H 38.294 c -2.421 0 -4.383 -1.962 -4.383 -4.383 V 72.59 h 19.018 v 3.774 C 52.929 78.785 50.967 80.748 48.546 80.748 z" style="stroke: none; stroke-width: 1; stroke-dasharray: none; stroke-linecap: butt; stroke-linejoin: miter; stroke-miterlimit: 10; fill: rgb(239,231,239); fill-rule: nonzero; opacity: 1;" transform=" matrix(1 0 0 1 0 0) " stroke-linecap="round" />
	<path d="M 59.154 15.791 l 0.012 -0.223 c -3.691 -3.591 -8.611 -5.921 -14.017 -6.269 c -0.538 -0.035 -1.07 -0.043 -1.6 -0.04 c -0.53 -0.003 -1.062 0.005 -1.6 0.04 c -5.406 0.348 -10.326 2.677 -14.017 6.269 l 0.012 0.223 c -3.668 3.68 -6.05 8.636 -6.428 14.146 c 2.229 1.068 3.776 3.34 3.776 5.972 c 0 1.804 -0.727 3.44 -1.9 4.635 c 0.429 0.956 0.921 1.878 1.475 2.757 c 2.163 3.429 3.872 7.101 5.061 10.925 l 0.029 0.558 c 0.717 2.518 1.193 5.107 1.425 7.728 c 0.096 1.091 1.019 1.921 2.114 1.921 h 0.242 H 53.36 h 0.242 c 1.095 0 2.018 -0.83 2.114 -1.921 c 0.232 -2.621 0.707 -5.211 1.425 -7.728 l 0.029 -0.558 c 1.189 -3.823 2.898 -7.496 5.061 -10.925 c 2.16 -3.424 3.41 -7.48 3.41 -11.828 C 65.641 25.351 63.16 19.811 59.154 15.791 z" style="stroke: none; stroke-width: 1; stroke-dasharray: none; stroke-linecap: butt; stroke-linejoin: miter; stroke-miterlimit: 10; fill: rgb(255,186,87); fill-rule: nonzero; opacity: 1;" transform=" matrix(1 0 0 1 0 0) " stroke-linecap="round" />
	<path d="M 53.359 65.433 H 33.496 c -1.631 0 -2.968 -1.218 -3.11 -2.833 c -0.226 -2.56 -0.694 -5.098 -1.391 -7.542 c -0.151 -0.531 0.157 -1.085 0.688 -1.236 c 0.529 -0.153 1.084 0.156 1.236 0.687 c 0.731 2.566 1.222 5.229 1.459 7.915 c 0.05 0.565 0.541 1.009 1.118 1.009 h 19.863 c 0.582 0 1.063 -0.436 1.119 -1.013 c 0.644 -6.713 3.032 -13.509 6.907 -19.653 c 2.13 -3.376 3.256 -7.282 3.256 -11.294 c 0 -5.928 -2.383 -11.427 -6.709 -15.483 c -4.323 -4.054 -9.984 -6.078 -15.918 -5.692 c -4.993 0.321 -9.746 2.447 -13.385 5.987 c -0.396 0.384 -1.028 0.376 -1.414 -0.02 c -0.385 -0.396 -0.376 -1.029 0.02 -1.414 c 3.979 -3.872 9.182 -6.198 14.651 -6.55 c 6.502 -0.41 12.684 1.794 17.415 6.229 c 4.665 4.374 7.341 10.55 7.341 16.942 c 0 4.391 -1.232 8.665 -3.564 12.362 c -3.709 5.881 -5.994 12.374 -6.608 18.777 C 56.314 64.22 54.977 65.433 53.359 65.433 z" style="stroke: none; stroke-width: 1; stroke-dasharray: none; stroke-linecap: butt; stroke-linejoin: miter; stroke-miterlimit: 10; fill: rgb(0,0,0); fill-rule: nonzero; opacity: 1;" transform=" matrix(1 0 0 1 0 0) " stroke-linecap="round" />
	<path d="M 52.929 73.59 H 33.911 c -0.552 0 -1 -0.447 -1 -1 v -8.157 c 0 -0.553 0.448 -1 1 -1 h 19.018 c 0.553 0 1 0.447 1 1 v 8.157 C 53.929 73.143 53.481 73.59 52.929 73.59 z M 34.911 71.59 h 17.018 v -6.157 H 34.911 V 71.59 z" style="stroke: none; stroke-width: 1; stroke-dasharray: none; stroke-linecap: butt; stroke-linejoin: miter; stroke-miterlimit: 10; fill: rgb(0,0,0); fill-rule: nonzero; opacity: 1;" transform=" matrix(1 0 0 1 0 0) " stroke-linecap="round" />
	<path d="M 48.546 81.747 H 38.294 c -2.968 0 -5.383 -2.415 -5.383 -5.383 V 72.59 c 0 -0.553 0.448 -1 1 -1 h 19.018 c 0.553 0 1 0.447 1 1 v 3.774 C 53.929 79.332 51.514 81.747 48.546 81.747 z M 34.911 73.59 v 2.774 c 0 1.865 1.518 3.383 3.383 3.383 h 10.252 c 1.865 0 3.383 -1.518 3.383 -3.383 V 73.59 H 34.911 z" style="stroke: none; stroke-width: 1; stroke-dasharray: none; stroke-linecap: butt; stroke-linejoin: miter; stroke-miterlimit: 10; fill: rgb(0,0,0); fill-rule: nonzero; opacity: 1;" transform=" matrix(1 0 0 1 0 0) " stroke-linecap="round" />
	<path d="M 19.895 14.53 c -0.115 0 -0.227 -0.023 -0.335 -0.067 c -0.215 -0.089 -0.384 -0.257 -0.473 -0.473 c -0.06 -0.145 -0.182 -0.167 -0.25 -0.167 s -0.19 0.022 -0.25 0.167 c -0.185 0.445 -0.698 0.656 -1.141 0.472 l -0.971 -0.402 c -0.131 -0.054 -0.193 -0.205 -0.139 -0.336 c 0.054 -0.131 0.205 -0.193 0.336 -0.139 l 0.97 0.402 c 0.183 0.076 0.394 -0.012 0.47 -0.195 c 0.148 -0.357 0.471 -0.485 0.725 -0.485 c 0.253 0 0.577 0.127 0.725 0.485 c 0.037 0.089 0.106 0.158 0.195 0.195 c 0.089 0.037 0.187 0.037 0.276 0 l 0.97 -0.402 c 0.183 -0.076 0.271 -0.287 0.195 -0.47 c -0.148 -0.357 -0.009 -0.676 0.17 -0.855 c 0.179 -0.179 0.498 -0.318 0.855 -0.17 c 0.089 0.037 0.187 0.037 0.276 0 c 0.089 -0.037 0.158 -0.106 0.195 -0.195 l 0.402 -0.97 c 0.037 -0.088 0.037 -0.186 0 -0.275 c -0.037 -0.089 -0.106 -0.158 -0.194 -0.195 c -0.357 -0.148 -0.485 -0.471 -0.485 -0.725 s 0.127 -0.577 0.484 -0.725 c 0.089 -0.037 0.158 -0.106 0.195 -0.195 c 0.037 -0.088 0.037 -0.186 0 -0.275 l -0.402 -0.97 c -0.037 -0.089 -0.106 -0.158 -0.195 -0.195 c -0.088 -0.036 -0.186 -0.037 -0.275 0 c -0.358 0.149 -0.677 0.009 -0.856 -0.171 c -0.179 -0.178 -0.318 -0.497 -0.17 -0.854 c 0.037 -0.089 0.037 -0.187 0 -0.276 c -0.037 -0.089 -0.106 -0.158 -0.195 -0.194 l -0.97 -0.402 c -0.089 -0.037 -0.187 -0.037 -0.275 0 c -0.089 0.037 -0.158 0.106 -0.195 0.195 c -0.148 0.357 -0.471 0.484 -0.725 0.484 c -0.253 0 -0.577 -0.127 -0.725 -0.484 c -0.076 -0.183 -0.287 -0.271 -0.47 -0.195 c -0.13 0.054 -0.281 -0.008 -0.336 -0.139 C 17.252 5.204 17.315 5.054 17.446 5 c 0.446 -0.185 0.957 0.028 1.142 0.473 c 0.06 0.145 0.183 0.167 0.25 0.167 s 0.19 -0.022 0.25 -0.167 c 0.089 -0.216 0.257 -0.384 0.473 -0.473 c 0.215 -0.089 0.453 -0.089 0.669 0 l 0.97 0.402 c 0.216 0.089 0.384 0.257 0.473 0.473 c 0.089 0.216 0.089 0.453 0 0.669 c -0.06 0.145 0.011 0.247 0.058 0.295 c 0.048 0.048 0.149 0.119 0.295 0.059 c 0.215 -0.089 0.453 -0.089 0.669 0 c 0.216 0.09 0.384 0.258 0.473 0.473 l 0.402 0.97 c 0.089 0.216 0.089 0.453 0 0.669 c -0.09 0.216 -0.258 0.384 -0.473 0.473 c -0.145 0.06 -0.167 0.182 -0.167 0.25 s 0.022 0.19 0.167 0.25 c 0.445 0.185 0.657 0.697 0.473 1.142 l -0.402 0.97 c -0.089 0.216 -0.257 0.384 -0.473 0.473 c -0.215 0.089 -0.453 0.089 -0.669 0 c -0.146 -0.059 -0.247 0.011 -0.295 0.059 c -0.048 0.048 -0.119 0.149 -0.058 0.295 c 0.184 0.445 -0.028 0.957 -0.473 1.142 l -0.97 0.402 C 20.122 14.507 20.009 14.53 19.895 14.53 z M 18.838 11.691 c -0.264 0 -0.52 -0.052 -0.763 -0.154 c -0.131 -0.055 -0.192 -0.206 -0.137 -0.337 c 0.055 -0.131 0.207 -0.192 0.337 -0.137 c 0.178 0.075 0.368 0.114 0.562 0.114 c 0.797 0 1.446 -0.649 1.446 -1.446 s -0.649 -1.446 -1.446 -1.446 c -0.142 0 -0.257 -0.115 -0.257 -0.257 s 0.115 -0.257 0.257 -0.257 c 1.081 0 1.96 0.879 1.96 1.96 S 19.918 11.691 18.838 11.691 z" style="stroke: none; stroke-width: 1; stroke-dasharray: none; stroke-linecap: butt; stroke-linejoin: miter; stroke-miterlimit: 10; fill: rgb(0,0,0); fill-rule: nonzero; opacity: 1;" transform=" matrix(3.89 0 0 3.89 -1.9444444444444287 -1.9444444444444287) " stroke-linecap="round" />
	<path d="M 56.925 32.473 c -0.553 0 -1 -0.448 -1 -1 c 0 -3.644 -1.465 -7.025 -4.124 -9.518 c -2.658 -2.492 -6.136 -3.734 -9.786 -3.499 c -0.55 0.044 -1.027 -0.382 -1.062 -0.934 c -0.035 -0.551 0.383 -1.027 0.934 -1.062 c 4.21 -0.272 8.218 1.163 11.284 4.037 c 3.022 2.834 4.756 6.835 4.756 10.977 C 57.925 32.026 57.477 32.473 56.925 32.473 z" style="stroke: none; stroke-width: 1; stroke-dasharray: none; stroke-linecap: butt; stroke-linejoin: miter; stroke-miterlimit: 10; fill: rgb(0,0,0); fill-rule: nonzero; opacity: 1;" transform=" matrix(1 0 0 1 0 0) " stroke-linecap="round" />
	<path d="M 9.42 10.214 L 9.42 10.214 c -0.3 -0.124 -0.323 -0.401 -0.323 -0.483 c 0 -0.082 0.023 -0.359 0.323 -0.483 c 0.151 -0.062 0.268 -0.18 0.331 -0.331 c 0.062 -0.151 0.062 -0.317 0 -0.468 L 9.352 7.489 c -0.129 -0.311 -0.487 -0.46 -0.798 -0.331 c -0.3 0.124 -0.512 -0.055 -0.569 -0.113 c -0.058 -0.058 -0.237 -0.27 -0.113 -0.57 c 0.062 -0.151 0.062 -0.317 0 -0.468 C 7.809 5.857 7.691 5.74 7.541 5.677 L 6.58 5.279 C 6.269 5.151 5.911 5.299 5.781 5.61 C 5.657 5.909 5.381 5.933 5.299 5.933 c -0.082 0 -0.359 -0.023 -0.483 -0.323 c -0.062 -0.151 -0.18 -0.268 -0.331 -0.331 c -0.151 -0.062 -0.317 -0.062 -0.468 0 L 3.057 5.677 C 2.906 5.74 2.788 5.857 2.726 6.008 c -0.062 0.151 -0.062 0.317 0 0.468 c 0.124 0.299 -0.055 0.512 -0.113 0.57 c -0.058 0.058 -0.27 0.238 -0.569 0.113 c -0.151 -0.062 -0.317 -0.062 -0.468 0 c -0.151 0.062 -0.268 0.18 -0.331 0.331 L 0.847 8.45 c -0.062 0.151 -0.062 0.317 0 0.468 s 0.18 0.268 0.331 0.331 C 1.477 9.372 1.5 9.649 1.5 9.731 c 0 0.082 -0.023 0.359 -0.323 0.483 c -0.311 0.129 -0.459 0.487 -0.331 0.798 l 0.398 0.961 c 0.062 0.151 0.18 0.268 0.331 0.331 c 0.151 0.062 0.317 0.062 0.468 0 c 0.299 -0.124 0.512 0.055 0.57 0.113 c 0.058 0.058 0.237 0.27 0.113 0.57 c -0.129 0.311 0.019 0.669 0.331 0.798 l 0.961 0.398 c 0.075 0.031 0.155 0.047 0.234 0.047 c 0.079 0 0.158 -0.016 0.234 -0.047 c 0.151 -0.062 0.268 -0.18 0.331 -0.331 c 0.124 -0.299 0.401 -0.323 0.483 -0.323 l 0 0 c 0.082 0 0.359 0.023 0.483 0.323 c 0.129 0.311 0.487 0.459 0.798 0.33 l 0.961 -0.398 c 0.311 -0.129 0.459 -0.487 0.33 -0.798 c -0.124 -0.299 0.055 -0.512 0.113 -0.57 c 0.058 -0.058 0.27 -0.238 0.57 -0.113 c 0.311 0.128 0.669 -0.02 0.798 -0.331 l 0.398 -0.961 C 9.879 10.701 9.731 10.343 9.42 10.214 z M 5.299 11.418 c -0.93 0 -1.687 -0.757 -1.687 -1.687 c 0 -0.93 0.757 -1.687 1.687 -1.687 s 1.687 0.757 1.687 1.687 C 6.986 10.661 6.229 11.418 5.299 11.418 z" style="stroke: none; stroke-width: 1; stroke-dasharray: none; stroke-linecap: butt; stroke-linejoin: miter; stroke-miterlimit: 10; fill: rgb(255,226,122); fill-rule: nonzero; opacity: 1;" transform=" matrix(3.89 0 0 3.89 -1.9444444444444287 -1.9444444444444287) " stroke-linecap="round" />
	<path d="M 6.356 14.53 c -0.115 0 -0.228 -0.023 -0.335 -0.067 c -0.215 -0.089 -0.383 -0.257 -0.473 -0.473 c -0.06 -0.145 -0.183 -0.167 -0.25 -0.167 c -0.068 0 -0.19 0.022 -0.25 0.167 c -0.185 0.445 -0.697 0.657 -1.141 0.472 l -0.97 -0.402 c -0.445 -0.185 -0.657 -0.697 -0.473 -1.142 c 0.06 -0.145 -0.011 -0.247 -0.059 -0.295 c -0.048 -0.048 -0.15 -0.119 -0.295 -0.058 c -0.446 0.183 -0.957 -0.029 -1.142 -0.473 l -0.402 -0.97 c -0.184 -0.445 0.028 -0.957 0.473 -1.142 h 0 c 0.145 -0.06 0.167 -0.182 0.167 -0.25 c 0 -0.068 -0.022 -0.19 -0.167 -0.25 C 0.824 9.392 0.656 9.224 0.567 9.008 c -0.089 -0.216 -0.089 -0.453 0 -0.669 l 0.402 -0.97 c 0.185 -0.445 0.697 -0.657 1.142 -0.473 c 0.145 0.061 0.247 -0.011 0.295 -0.059 c 0.048 -0.048 0.119 -0.15 0.059 -0.295 c -0.089 -0.216 -0.089 -0.453 0 -0.669 c 0.089 -0.216 0.257 -0.384 0.473 -0.473 L 3.907 5 c 0.445 -0.184 0.957 0.028 1.142 0.473 c 0.06 0.145 0.182 0.167 0.25 0.167 s 0.19 -0.022 0.25 -0.167 c 0.089 -0.216 0.257 -0.384 0.473 -0.473 c 0.215 -0.09 0.453 -0.089 0.669 0 l 0.97 0.402 C 7.876 5.49 8.044 5.658 8.133 5.874 c 0.089 0.216 0.089 0.453 0 0.669 C 8.073 6.688 8.144 6.79 8.192 6.837 C 8.24 6.886 8.341 6.957 8.487 6.896 c 0.216 -0.089 0.453 -0.089 0.669 0 C 9.371 6.986 9.54 7.154 9.629 7.37 l 0.402 0.97 c 0.089 0.216 0.089 0.453 0 0.669 C 9.941 9.224 9.773 9.392 9.557 9.481 C 9.412 9.541 9.39 9.664 9.39 9.731 s 0.022 0.19 0.167 0.25 c 0.445 0.185 0.657 0.697 0.473 1.142 l -0.402 0.97 c -0.089 0.216 -0.257 0.384 -0.473 0.473 c -0.216 0.089 -0.453 0.089 -0.669 0 c -0.146 -0.06 -0.247 0.011 -0.295 0.059 c -0.048 0.048 -0.119 0.15 -0.059 0.295 c 0.089 0.215 0.089 0.453 0 0.669 c -0.089 0.216 -0.257 0.384 -0.473 0.473 l -0.97 0.402 C 6.583 14.507 6.47 14.53 6.356 14.53 z M 5.299 13.309 c 0.253 0 0.577 0.127 0.725 0.485 c 0.037 0.089 0.106 0.158 0.195 0.195 c 0.089 0.037 0.186 0.037 0.276 0 l 0.969 -0.402 c 0.089 -0.037 0.158 -0.106 0.195 -0.195 c 0.037 -0.089 0.037 -0.187 0 -0.275 c -0.148 -0.357 -0.009 -0.676 0.17 -0.855 c 0.179 -0.179 0.498 -0.318 0.855 -0.17 c 0.089 0.037 0.187 0.037 0.276 0 c 0.089 -0.037 0.158 -0.106 0.195 -0.195 l 0.402 -0.97 c 0.076 -0.183 -0.011 -0.394 -0.195 -0.47 c -0.357 -0.148 -0.485 -0.472 -0.485 -0.725 c 0 -0.253 0.127 -0.577 0.484 -0.725 C 9.449 8.969 9.518 8.9 9.555 8.811 c 0.037 -0.089 0.037 -0.187 0 -0.276 l -0.402 -0.97 C 9.117 7.477 9.048 7.408 8.959 7.371 c -0.089 -0.037 -0.187 -0.037 -0.275 0 C 8.326 7.52 8.007 7.38 7.828 7.201 C 7.649 7.022 7.51 6.704 7.658 6.346 c 0.037 -0.089 0.037 -0.187 0 -0.275 C 7.622 5.982 7.552 5.913 7.464 5.876 l -0.97 -0.402 c -0.089 -0.037 -0.187 -0.037 -0.275 0 C 6.129 5.511 6.06 5.58 6.024 5.669 C 5.876 6.026 5.552 6.153 5.299 6.153 S 4.722 6.026 4.574 5.669 c -0.076 -0.183 -0.287 -0.271 -0.47 -0.195 l -0.97 0.402 C 3.045 5.913 2.976 5.982 2.939 6.071 c -0.037 0.089 -0.037 0.186 0 0.275 c 0.148 0.357 0.009 0.676 -0.17 0.855 c -0.179 0.18 -0.498 0.318 -0.855 0.17 C 1.731 7.296 1.52 7.383 1.444 7.566 l -0.402 0.97 c -0.037 0.089 -0.037 0.187 0 0.275 C 1.079 8.9 1.148 8.969 1.237 9.006 c 0.357 0.148 0.484 0.472 0.484 0.725 c 0 0.253 -0.127 0.577 -0.484 0.725 l -0.098 -0.237 l 0.098 0.237 c -0.183 0.076 -0.27 0.287 -0.195 0.47 l 0.402 0.97 c 0.076 0.183 0.287 0.271 0.471 0.195 c 0.356 -0.148 0.675 -0.009 0.855 0.17 c 0.179 0.179 0.318 0.498 0.17 0.855 c -0.076 0.183 0.011 0.394 0.195 0.47 l 0.97 0.402 c 0.184 0.076 0.394 -0.011 0.47 -0.195 C 4.722 13.436 5.045 13.309 5.299 13.309 z M 5.299 11.691 c -1.081 0 -1.96 -0.879 -1.96 -1.96 s 0.879 -1.96 1.96 -1.96 s 1.96 0.879 1.96 1.96 S 6.38 11.691 5.299 11.691 z M 5.299 8.285 c -0.797 0 -1.446 0.649 -1.446 1.446 s 0.649 1.446 1.446 1.446 s 1.446 -0.649 1.446 -1.446 S 6.096 8.285 5.299 8.285 z" style="stroke: none; stroke-width: 1; stroke-dasharray: none; stroke-linecap: butt; stroke-linejoin: miter; stroke-miterlimit: 10; fill: rgb(0,0,0); fill-rule: nonzero; opacity: 1;" transform=" matrix(3.89 0 0 3.89 -1.9444444444444287 -1.9444444444444287) " stroke-linecap="round" />
</g>
</g>
</svg>