<svg xmlns="http://www.w3.org/2000/svg" xmlns:xlink="http://www.w3.org/1999/xlink" version="1.1" width="256" height="256" viewBox="0 0 256 256" xml:space="preserve">
<desc>Created with Fabric.js 1.7.22</desc>
<defs>
</defs>
<g transform="translate(128 128) scale(0.72 0.72)" style="">
	<g style="stroke: none; stroke-width: 0; stroke-dasharray: none; stroke-linecap: butt; stroke-linejoin: miter; stroke-miterlimit: 10; fill: none; fill-rule: nonzero; opacity: 1;" transform="translate(-175.05 -175.05000000000004) scale(3.89 3.89)" >
	<path d="M 51.959 13.205 C 55.751 10.22 57.016 5.819 55.751 0 H 34.249 c -2.789 5.694 -2.074 10.264 3.792 13.205 H 51.959 z" style="stroke: none; stroke-width: 1; stroke-dasharray: none; stroke-linecap: butt; stroke-linejoin: miter; stroke-miterlimit: 10; fill: rgb(233,84,84); fill-rule: nonzero; opacity: 1;" transform=" matrix(1 0 0 1 0 0) " stroke-linecap="round" />
	<polygon points="42.95,30.28 34.25,0 17.75,10.71 25.63,37.49 " style="stroke: none; stroke-width: 1; stroke-dasharray: none; stroke-linecap: butt; stroke-linejoin: miter; stroke-miterlimit: 10; fill: rgb(237,99,98); fill-rule: nonzero; opacity: 1;" transform="  matrix(1 0 0 1 0 0) "/>
	<polygon points="64.37,37.49 72.25,10.71 55.75,0 47.06,30.28 " style="stroke: none; stroke-width: 1; stroke-dasharray: none; stroke-linecap: butt; stroke-linejoin: miter; stroke-miterlimit: 10; fill: rgb(237,99,98); fill-rule: nonzero; opacity: 1;" transform="  matrix(1 0 0 1 0 0) "/>
	<path d="M 45 90 c 16.769 0 30.363 -13.594 30.363 -30.363 S 61.769 29.273 45 29.273 C 34.997 49.991 34.2 70.271 45 90 z" style="stroke: none; stroke-width: 1; stroke-dasharray: none; stroke-linecap: butt; stroke-linejoin: miter; stroke-miterlimit: 10; fill: rgb(255,204,91); fill-rule: nonzero; opacity: 1;" transform=" matrix(1 0 0 1 0 0) " stroke-linecap="round" />
	<path d="M 45 90 c -16.769 0 -30.363 -13.594 -30.363 -30.363 S 28.231 29.273 45 29.273 v 60.696" style="stroke: none; stroke-width: 1; stroke-dasharray: none; stroke-linecap: butt; stroke-linejoin: miter; stroke-miterlimit: 10; fill: rgb(253,188,75); fill-rule: nonzero; opacity: 1;" transform=" matrix(1 0 0 1 0 0) " stroke-linecap="round" />
	<path d="M 37.402 79.821 c -0.124 0 -0.25 -0.023 -0.372 -0.071 c -5.372 -2.129 -9.594 -6.223 -11.887 -11.527 c -2.293 -5.305 -2.384 -11.185 -0.255 -16.557 c 0.206 -0.52 0.793 -0.773 1.314 -0.568 c 0.519 0.206 0.774 0.794 0.568 1.314 c -1.93 4.87 -1.848 10.2 0.231 15.008 c 2.079 4.809 5.905 8.519 10.774 10.448 c 0.52 0.206 0.774 0.794 0.568 1.314 C 38.186 79.579 37.805 79.821 37.402 79.821 z" style="stroke: none; stroke-width: 1; stroke-dasharray: none; stroke-linecap: butt; stroke-linejoin: miter; stroke-miterlimit: 10; fill: rgb(236,153,34); fill-rule: nonzero; opacity: 1;" transform=" matrix(1 0 0 1 0 0) " stroke-linecap="round" />
	<path d="M 64.172 68.247 c -0.125 0 -0.25 -0.023 -0.373 -0.071 c -0.52 -0.206 -0.774 -0.794 -0.568 -1.314 c 3.983 -10.052 -0.954 -21.471 -11.006 -25.455 c -0.52 -0.206 -0.774 -0.794 -0.568 -1.314 c 0.206 -0.52 0.794 -0.773 1.314 -0.568 c 11.09 4.395 16.537 16.993 12.142 28.083 C 64.956 68.005 64.574 68.247 64.172 68.247 z" style="stroke: none; stroke-width: 1; stroke-dasharray: none; stroke-linecap: butt; stroke-linejoin: miter; stroke-miterlimit: 10; fill: rgb(236,153,34); fill-rule: nonzero; opacity: 1;" transform=" matrix(1 0 0 1 0 0) " stroke-linecap="round" />
	<path d="M 59.889 59.931 l -0.141 -0.303 c -0.136 -0.291 -0.317 -0.546 -0.533 -0.761 c 0.642 -0.769 0.822 -1.871 0.372 -2.838 l -0.141 -0.299 c -0.267 -0.572 -0.719 -1.022 -1.286 -1.287 c 0.128 -0.57 0.064 -1.163 -0.186 -1.701 l -0.141 -0.299 c -0.281 -0.604 -0.769 -1.072 -1.381 -1.329 c 0.097 -0.525 0.037 -1.085 -0.205 -1.606 l -0.141 -0.299 c -0.3 -0.645 -0.834 -1.133 -1.504 -1.377 c -0.672 -0.244 -1.395 -0.213 -2.038 0.089 l -5.308 2.484 c -1.4 -3.739 -2.788 -5.646 -4.444 -6.134 c -1.068 -0.315 -2.197 -0.018 -3.349 0.885 l -0.595 0.466 l 0.287 0.7 c 1.19 2.908 1.274 7.094 0.361 8.879 c -0.2 -0.178 -0.441 -0.313 -0.707 -0.393 c -0.477 -0.144 -0.993 -0.104 -1.455 0.112 l -6.316 2.945 c -0.995 0.464 -1.448 1.607 -1.009 2.551 l 5.521 11.839 c 0.314 0.671 0.998 1.062 1.725 1.062 c 0.292 0 0.591 -0.063 0.876 -0.196 l 6.317 -2.945 c 0.462 -0.216 0.824 -0.586 1.021 -1.043 c 0.078 -0.183 0.126 -0.374 0.146 -0.565 c 1.511 0.011 3.169 -0.49 4.459 -1.132 l 8.503 -3.966 c 0.645 -0.3 1.133 -0.834 1.377 -1.504 C 60.219 61.296 60.188 60.572 59.889 59.931 z" style="stroke: none; stroke-width: 1; stroke-dasharray: none; stroke-linecap: butt; stroke-linejoin: miter; stroke-miterlimit: 10; fill: rgb(236,153,34); fill-rule: nonzero; opacity: 1;" transform=" matrix(1 0 0 1 0 0) " stroke-linecap="round" />
</g>
</g>
</svg>